<svg width="70" height="70" viewBox="0 0 70 70" fill="none" xmlns="http://www.w3.org/2000/svg">
<g clip-path="url(#clip0_8_31)">
<g filter="url(#filter0_d_8_31)">
<path d="M65.8333 35.6666C65.8333 46.9796 65.8333 52.6376 62.3173 56.1506C58.8013 59.6636 53.1463 59.6666 41.8333 59.6666H29.8333C18.5203 59.6666 12.8623 59.6666 9.34934 56.1506C5.83634 52.6346 5.83334 46.9796 5.83334 35.6666C5.83334 24.3536 5.83334 18.6956 9.34934 15.1826C12.8653 11.6696 18.5203 11.6666 29.8333 11.6666H41.8333C53.1463 11.6666 58.8043 11.6666 62.3173 15.1826C64.2793 17.1416 65.1463 19.7666 65.5273 23.6666" stroke="white" stroke-width="6" stroke-linecap="round"/>
<path d="M53.8333 23.6666L47.3563 29.0666C41.8483 33.6566 39.0913 35.9516 35.8333 35.9516C33.8833 35.9516 32.1163 35.1296 29.8333 33.4916M17.8333 23.6666L20.5333 25.9166L23.2333 28.1666" stroke="white" stroke-width="6" stroke-linecap="round"/>
</g>
</g>
<defs>
<filter id="filter0_d_8_31" x="-1.16666" y="8.66663" width="74" height="62" filterUnits="userSpaceOnUse" color-interpolation-filters="sRGB">
<feFlood flood-opacity="0" result="BackgroundImageFix"/>
<feColorMatrix in="SourceAlpha" type="matrix" values="0 0 0 0 0 0 0 0 0 0 0 0 0 0 0 0 0 0 127 0" result="hardAlpha"/>
<feOffset dy="4"/>
<feGaussianBlur stdDeviation="2"/>
<feComposite in2="hardAlpha" operator="out"/>
<feColorMatrix type="matrix" values="0 0 0 0 0 0 0 0 0 0 0 0 0 0 0 0 0 0 0.25 0"/>
<feBlend mode="normal" in2="BackgroundImageFix" result="effect1_dropShadow_8_31"/>
<feBlend mode="normal" in="SourceGraphic" in2="effect1_dropShadow_8_31" result="shape"/>
</filter>
<clipPath id="clip0_8_31">
<rect width="70" height="70" fill="white"/>
</clipPath>
</defs>
</svg>
